<svg id="Capa_1" data-name="Capa 1" xmlns="http://www.w3.org/2000/svg" viewBox="0 0 1159.34 880.51"><path d="M868.39,550.6l-72.78-67.94L761.1,450.83a28,28,0,0,1,5.34-45h0a28,28,0,0,1,38.09,10.8,25.56,25.56,0,0,1,1.22,2.46l11.35,26.05,70.5,73.12Z" fill="#ffb9b9"/><path d="M877.9,506.53,852.35,549.1,956.1,612.75c91.47-65.75,109.57-87.15,87.16-191.88l-17.82-17.82L939.25,542.84Z" fill="#fff"/><path d="M727.23,388.17a6.28,6.28,0,0,0-7.86-.77l-48,31.29a6.34,6.34,0,0,0-1.85,8.75,7,7,0,0,0,.84,1L792.5,550.13a6.32,6.32,0,0,0,8.93,0l.07-.07,40-41.44a6.34,6.34,0,0,0-.13-8.92Z" fill="#3f3d56"/><path d="M680.79,422l5-3.17a4.74,4.74,0,0,0,6.82,6.22L724.75,403a4.73,4.73,0,0,0-1.25-8.42l2.56-1.63a1.71,1.71,0,0,1,2.15.24L836.46,499.53a1.72,1.72,0,0,1,0,2.44l0,0L797.1,540.3a1.72,1.72,0,0,1-2.4,0L680.49,424.72a1.73,1.73,0,0,1,0-2.44A1.76,1.76,0,0,1,680.79,422Z" fill="#fff"/><polygon points="805.71 476.05 772.51 507.36 693.53 429.32 733.61 403.23 805.71 476.05" fill="#fff"/><path d="M696.6,448.58a1.17,1.17,0,0,0,0-1.63l-6.91-6.9a1.17,1.17,0,0,0-1.63,0,1.16,1.16,0,0,0,0,1.62l6.91,6.91A1.19,1.19,0,0,0,696.6,448.58Z" fill="#e6e6e6"/><path d="M708.23,458.59l-6.91-6.91a1.14,1.14,0,0,0-1.62,0,1.15,1.15,0,0,0,0,1.63h0l6.91,6.9a1.15,1.15,0,1,0,1.62-1.62Z" fill="#e6e6e6"/><circle cx="804.95" cy="502.92" r="7.76" fill="#fff"/><path d="M306.49,756.58,267.09,767h0a49.16,49.16,0,0,1-62.66,23.21l-.86-.35A58.91,58.91,0,0,1,189.1,781c-16.55-13.42-44.12-20.34-80.69-22a10.6,10.6,0,0,1-7.4-10.67h0a10.59,10.59,0,0,1,9.21-9.94l197.17-25.72Z" fill="#e6e6e6"/><path d="M817.69,791.49C714.6,775,620.69,748.2,542,704.53l-244.41,60,.89-53.59,191.05-67A242.8,242.8,0,0,1,590,631.06l227.69,42.26Z" fill="#2f2e41"/><path d="M424.67,813h0a12.55,12.55,0,0,1,5.15-14.1l92.43-48.59,22.38-58.19,38.5,24.17-10.74,43L574.93,777a39.34,39.34,0,0,1-33.37,44.5,39.76,39.76,0,0,1-5.56.39H436.68A12.53,12.53,0,0,1,424.67,813Z" fill="#e6e6e6"/><path d="M942.13,758.37C830.52,897.14,753.72,746,678,585.58L586.71,734.19,531.2,694.8l95.72-210.57a36,36,0,0,1,57.31-11.52L817.69,621.39l25.07-1.79Z" fill="#2f2e41"/><circle cx="948.4" cy="295.51" r="66.25" fill="#ffb9b9"/><path d="M1032.56,413.69,959.14,429.8a442.64,442.64,0,0,0-30.44-87.73l68-25.07A470.84,470.84,0,0,0,1032.56,413.69Z" fill="#ffb9b9"/><path d="M948.4,775.38l-130.71-154,53.23-88.47c5.6-39.8,26.15-71.08,57.78-96l21.49-35.72,64.46-26.86h0a131.92,131.92,0,0,1,39.13,155.2Z" fill="#fff"/><path d="M835.6,605.28,756.81,544.4l-37.32-28.49a28,28,0,0,1,1.12-45.33h0a28,28,0,0,1,38.94,7.21q.78,1.14,1.44,2.34L774.72,505l77,66.25Z" fill="#ffb9b9"/><path d="M841,560.51l-21.49,44.77L928.7,659c85-74,132.33-144.9,100.28-247.09l-41.19,10.74L905.43,591Z" fill="#fff"/><circle cx="1034.41" cy="192.78" r="26.38" fill="#2f2e41"/><path d="M1007.23,186.32a26.35,26.35,0,0,1,26.36-24.65c-.54-.07-1.08-.15-1.64-.19a26.38,26.38,0,0,0-3.38,52.65c.55,0,1.1,0,1.65,0A26.35,26.35,0,0,1,1007.23,186.32Z" fill="#2f2e41"/><path d="M1007.08,197.59c-23.52-19.52-91,5.29-95.35,18.41-31.82,4.33-55.9,22.89-55.9,55.89h0c18.91,7.75,40.42,6.8,63.67,0,37.07,30.21,39.61,68.18,17.07,111.8l27.73.55L998.68,334l1.64,51,63.57-1.27v-73a152.63,152.63,0,0,0-16.3-70C1037.68,221.46,1022.31,210.22,1007.08,197.59Z" fill="#2f2e41"/><ellipse cx="947.88" cy="308.96" rx="12.61" ry="17.66" fill="#ffb8b8"/></svg>